<?xml version="1.0" encoding="UTF-8" standalone="no"?>
<!-- Created with Inkscape (http://www.inkscape.org/) -->
<svg
   xmlns:dc="http://purl.org/dc/elements/1.1/"
   xmlns:cc="http://web.resource.org/cc/"
   xmlns:rdf="http://www.w3.org/1999/02/22-rdf-syntax-ns#"
   xmlns:svg="http://www.w3.org/2000/svg"
   xmlns="http://www.w3.org/2000/svg"
   xmlns:xlink="http://www.w3.org/1999/xlink"
   xmlns:sodipodi="http://sodipodi.sourceforge.net/DTD/sodipodi-0.dtd"
   xmlns:inkscape="http://www.inkscape.org/namespaces/inkscape"
   id="svg1923"
   sodipodi:version="0.32"
   inkscape:version="0.44.1"
   width="153"
   height="153"
   version="1.0">
  <metadata
     id="metadata1928">
    <rdf:RDF>
      <cc:Work
         rdf:about="">
        <dc:format>image/svg+xml</dc:format>
        <dc:type
           rdf:resource="http://purl.org/dc/dcmitype/StillImage" />
      </cc:Work>
    </rdf:RDF>
  </metadata>
  <defs
     id="defs1926">
    <linearGradient
       inkscape:collect="always"
       id="linearGradient5896">
      <stop
         style="stop-color:white;stop-opacity:1;"
         offset="0"
         id="stop5898" />
      <stop
         style="stop-color:white;stop-opacity:0;"
         offset="1"
         id="stop5900" />
    </linearGradient>
    <radialGradient
       inkscape:collect="always"
       xlink:href="#linearGradient5896"
       id="radialGradient5902"
       cx="77.75676"
       cy="142.58615"
       fx="77.75676"
       fy="142.58615"
       r="44.085304"
       gradientTransform="matrix(1,0,0,0.181102,0,116.7635)"
       gradientUnits="userSpaceOnUse" />
  </defs>
  <sodipodi:namedview
     inkscape:window-height="622"
     inkscape:window-width="867"
     inkscape:pageshadow="2"
     inkscape:pageopacity="0.0"
     guidetolerance="10.0"
     gridtolerance="10.0"
     objecttolerance="10.0"
     borderopacity="1.0"
     bordercolor="#666666"
     pagecolor="#ffffff"
     id="base"
     inkscape:zoom="2.0370181"
     inkscape:cx="84.493927"
     inkscape:cy="73.335439"
     inkscape:window-x="54"
     inkscape:window-y="35"
     inkscape:current-layer="svg1923" />
  <path
     sodipodi:type="arc"
     style="fill:url(#radialGradient5902);fill-opacity:1.0;fill-rule:evenodd;stroke:none;stroke-width:3;stroke-linejoin:round;stroke-miterlimit:4;stroke-dasharray:none;stroke-opacity:1"
     id="path5781"
     sodipodi:cx="77.75676"
     sodipodi:cy="142.58615"
     sodipodi:rx="44.085304"
     sodipodi:ry="7.9839525"
     d="M 121.84206 142.58615 A 44.085304 7.9839525 0 1 1  33.671455,142.58615 A 44.085304 7.9839525 0 1 1  121.84206 142.58615 z" />
  <path
     style="fill:#00a2ff;fill-opacity:1;stroke:#aee3ff;stroke-opacity:1"
     d="M 73.78125,85.15625 C 53.775112,83.502589 40.947397,111.2286 54.03125,125.875 C 64.920622,139.24976 89.57955,136.89394 96.3125,120.5625 C 103.43455,105.01268 91.59677,84.155451 73.78125,85.15625 z "
     id="path2920" />
  <path
     style="fill:#a0c0c0;fill-rule:evenodd;stroke:#dcdcdc;stroke-width:1px;stroke-linecap:butt;stroke-linejoin:miter;stroke-opacity:1;fill-opacity:1"
     d="M 79.3125 6.40625 C 68.303969 10.752748 65.905515 22.739014 68.40625 39.09375 C 62.921844 35.137595 58.86139 28.915484 51.125 28.5625 C 59.165963 34.51519 61.779972 51.712972 55.25 56 C 49.664666 55.017394 48.335513 48.035121 44.34375 48.875 C 49.043111 56.817567 47.915681 61.67907 45.71875 67.34375 C 44.510543 70.45905 45.736029 76.327721 41.71875 77.0625 C 38.085318 73.172278 34.548458 68.066159 30.4375 69.90625 C 42.662787 76.943413 32.469618 102.46241 36.9375 106.375 C 36.942025 106.38441 36.962488 106.39672 36.96875 106.40625 C 36.855205 107.58197 36.78125 108.76355 36.78125 109.96875 C 36.781251 130.27993 53.282574 146.75 73.59375 146.75 C 93.904923 146.75 110.375 130.27993 110.375 109.96875 C 110.375 106.88464 109.99652 103.89525 109.28125 101.03125 C 108.72056 91.342064 110.92214 91.013655 109.125 87.21875 C 112.76418 85.63065 115.34606 73.905814 123.6875 72.9375 C 120.23448 68.784755 113.91588 75.277453 107.875 74.4375 C 112.22786 46.394324 103.21612 51.529756 103.75 42.46875 C 100.70043 48.261547 105.22527 56.371091 99.625 60.90625 C 99.66542 34.022819 91.429387 39.406641 90.96875 28.5625 C 89.440411 30.914159 89.849313 37.516991 86.09375 34.96875 C 78.599386 22.825991 77.83925 14.065203 79.3125 6.40625 z M 74 53.1875 C 79.1793 55.336664 79.320053 64.532885 83.40625 74.5 C 80.375343 73.660643 77.197037 73.183613 73.90625 73.15625 C 71.713333 65.326126 75.784779 59.881445 74 53.1875 z M 90.59375 65.1875 C 91.851317 70.090494 95.562122 66.896529 95.71875 80.5625 C 93.406374 78.815584 90.878973 77.354898 88.1875 76.1875 C 88.715153 72.617914 87.879604 68.604545 90.59375 65.1875 z M 61.75 66.34375 C 65.980004 67.10742 65.358187 70.39088 67.3125 73.71875 C 64.778823 74.156306 62.328913 74.853046 60 75.78125 C 60.209107 71.685728 62.144639 69.96352 61.75 66.34375 z M 52.15625 72.5 C 53.657817 74.63684 52.746958 77.193033 53.71875 79 C 51.652023 80.33031 49.724998 81.857781 47.96875 83.5625 C 46.942655 75.872893 51.401934 76.422586 52.15625 72.5 z M 74.65625 81.15625 C 75.260024 81.171096 75.870866 81.223662 76.46875 81.28125 C 76.918633 81.324738 77.366445 81.370711 77.8125 81.4375 C 78.159348 81.489269 78.499543 81.559673 78.84375 81.625 C 79.01202 81.657081 79.176146 81.683496 79.34375 81.71875 C 79.564502 81.764958 79.780471 81.823393 80 81.875 C 80.582569 82.011952 81.176856 82.170177 81.75 82.34375 C 81.95833 82.40719 82.168029 82.463174 82.375 82.53125 C 82.735616 82.64936 83.081224 82.77442 83.4375 82.90625 C 83.581307 82.959512 83.73194 83.007076 83.875 83.0625 C 84.291098 83.223616 84.715499 83.38354 85.125 83.5625 C 85.671824 83.801965 86.216163 84.074556 86.75 84.34375 C 87.326415 84.599586 87.891818 84.893032 88.4375 85.1875 C 88.834637 85.401982 89.213068 85.609844 89.59375 85.84375 C 89.814832 85.979421 90.034472 86.108012 90.25 86.25 C 90.347772 86.314431 90.434627 86.403044 90.53125 86.46875 C 90.974694 86.770326 91.424556 87.078767 91.84375 87.40625 C 92.355497 87.806037 92.837187 88.220404 93.3125 88.65625 C 93.712055 89.022623 94.095209 89.391203 94.46875 89.78125 C 94.540268 89.855897 94.616937 89.924522 94.6875 90 C 94.970404 90.302735 95.23254 90.62187 95.5 90.9375 C 95.647976 91.111972 95.794258 91.290516 95.9375 91.46875 C 96.11794 91.693466 96.295868 91.925782 96.46875 92.15625 C 96.679201 92.436653 96.894521 92.711508 97.09375 93 C 97.187572 93.135964 97.283682 93.268563 97.375 93.40625 C 97.638512 93.803147 97.882363 94.214569 98.125 94.625 C 98.14416 94.65747 98.168471 94.6862 98.1875 94.71875 C 98.384743 95.05549 98.566827 95.404956 98.75 95.75 C 98.810581 95.864282 98.878468 95.978603 98.9375 96.09375 C 98.975776 96.168315 99.024875 96.23758 99.0625 96.3125 C 99.257056 96.700401 99.416687 97.103102 99.59375 97.5 C 99.77292 97.90162 99.96384 98.308808 100.125 98.71875 C 100.15385 98.792132 100.19048 98.863868 100.21875 98.9375 C 100.25757 99.038503 100.27477 99.14854 100.3125 99.25 C 100.45539 99.634811 100.59159 100.0153 100.71875 100.40625 C 100.87974 100.90121 101.02063 101.40277 101.15625 101.90625 C 101.29187 102.40973 101.42116 102.89572 101.53125 103.40625 C 101.62144 103.82449 101.7083 104.26542 101.78125 104.6875 C 101.79735 104.78064 101.82849 104.87545 101.84375 104.96875 C 101.8503 105.00879 101.83735 105.05368 101.84375 105.09375 C 101.91945 105.56871 101.97742 106.0216 102.03125 106.5 C 102.08747 106.99963 102.15527 107.49789 102.1875 108 C 102.18883 108.02071 102.18621 108.04179 102.1875 108.0625 C 102.2159 108.51221 102.24101 108.95559 102.25 109.40625 C 102.37708 115.77613 100.55124 122.19174 96.65625 127.34375 C 85.682222 143.8395 58.455035 141.55955 48.78125 124.90625 C 45.34986 119.90877 44.188398 114.06494 44.75 108.3125 C 44.793122 107.8708 44.842797 107.44027 44.90625 107 C 44.907715 106.98982 44.904775 106.97892 44.90625 106.96875 C 44.968663 106.53894 45.043648 106.11515 45.125 105.6875 C 45.207971 105.2505 45.303984 104.8089 45.40625 104.375 C 45.610782 103.50719 45.846002 102.6317 46.125 101.78125 C 46.393679 100.96225 46.696805 100.17184 47.03125 99.375 C 47.226879 98.908898 47.438995 98.425662 47.65625 97.96875 C 47.837681 97.588107 48.022709 97.217252 48.21875 96.84375 C 48.427288 96.445862 48.650333 96.045225 48.875 95.65625 C 49.069904 95.319651 49.262076 94.985585 49.46875 94.65625 C 49.806879 94.116089 50.162523 93.581233 50.53125 93.0625 C 50.552992 93.031955 50.571904 92.999216 50.59375 92.96875 C 50.939977 92.485905 51.315775 92.02456 51.6875 91.5625 C 51.771382 91.458233 51.852353 91.353148 51.9375 91.25 C 52.250594 90.870531 52.576407 90.488605 52.90625 90.125 C 53.329014 89.65953 53.76967 89.218653 54.21875 88.78125 C 54.556833 88.451958 54.897633 88.12473 55.25 87.8125 C 55.393812 87.685069 55.541372 87.561973 55.6875 87.4375 C 56.133661 87.057034 56.595384 86.695312 57.0625 86.34375 C 57.298956 86.165994 57.539643 85.982492 57.78125 85.8125 C 57.988956 85.666329 58.194822 85.515253 58.40625 85.375 C 58.487746 85.320922 58.57421 85.271933 58.65625 85.21875 C 58.731238 85.170156 58.799561 85.110338 58.875 85.0625 C 59.565863 84.624281 60.273024 84.246997 61 83.875 C 61.062646 83.842944 61.124597 83.812793 61.1875 83.78125 C 61.580682 83.58382 61.972021 83.395624 62.375 83.21875 C 62.777979 83.041876 63.181427 82.874238 63.59375 82.71875 C 64.003429 82.564399 64.425328 82.413686 64.84375 82.28125 C 64.999542 82.231959 65.155534 82.171174 65.3125 82.125 C 65.436415 82.088537 65.562869 82.065748 65.6875 82.03125 C 66.164072 81.899335 66.638356 81.78995 67.125 81.6875 C 67.217722 81.66798 67.313176 81.643425 67.40625 81.625 C 67.579647 81.590792 67.762899 81.561618 67.9375 81.53125 C 68.20499 81.484577 68.479778 81.443758 68.75 81.40625 C 69.154318 81.350281 69.558573 81.284929 69.96875 81.25 C 70.051589 81.242905 70.135681 81.256221 70.21875 81.25 C 70.630544 81.219338 71.051491 81.196323 71.46875 81.1875 C 71.927302 81.177815 72.379069 81.17001 72.84375 81.1875 C 73.452236 81.157563 74.052476 81.141404 74.65625 81.15625 z "
     id="path1932" />
</svg>
