/* XPM */
static char *aterm_16[] = {
/* columns rows colors chars-per-pixel */
"16 16 73 1",
"  c #020202",
". c #0c0c0c",
"X c #141414",
"o c #232323",
"O c #292929",
"+ c #323232",
"@ c #3a3a3a",
"# c #445c19",
"$ c #48601f",
"% c #4d6425",
"& c #506729",
"* c #556b2f",
"= c #576d31",
"- c #596f34",
"; c #5c7137",
": c #5e723a",
"> c #61753e",
", c #4a4a4a",
"< c #535353",
"1 c #5f5f5f",
"2 c #637741",
"3 c #647842",
"4 c #6b7e4a",
"5 c #696969",
"6 c #747474",
"7 c #787878",
"8 c #7f7d82",
"9 c #6e814e",
"0 c #70824f",
"q c #748656",
"w c #7b8c5d",
"e c #7e8f62",
"r c #807f84",
"t c #829267",
"y c #85946a",
"u c #88976e",
"i c #8c9b73",
"p c #96a47f",
"a c #848484",
"s c #89878c",
"d c #8c8c8c",
"f c #90908f",
"g c #939393",
"h c #9c9c9c",
"j c #9ea98b",
"k c #9fa09f",
"l c #a3af8f",
"z c #a0a19f",
"x c #a4ae93",
"c c #a6b193",
"v c #a8b396",
"b c #aab49a",
"n c #adb89b",
"m c #a2a2a2",
"M c #adadae",
"N c #b0afb3",
"B c #b0b8a2",
"V c #b3b1b5",
"C c #bdbdbd",
"Z c #bfbdc1",
"A c #bec3b4",
"S c #bfc2b9",
"D c #c1bfc3",
"F c #c3c5be",
"G c #c3c3c3",
"H c #cbcbcc",
"J c #d0d1cf",
"K c #d3d4d2",
"L c #dcdbdc",
"P c #e4e4e4",
"I c #f0f1ed",
"U c #f5f5f5",
"Y c None",
/* pixels */
"  YhHCGDDDCGaY  ",
"  ,KFFFSFFFKH@Y ",
" Ysn;>>q3>%qLd. ",
"  8xuien-:%>Kf@Y",
".Yrcyxeiw9&3Kd5 ",
" Y8xuvpixj#3Kd6.",
" Y8b9>>;:9%3Kd6 ",
".Y8ceyyt;%*2Ks6.",
"  rx4xq=%%#:Kf7 ",
" Y6IcBxjxxjALrO ",
"  X<mNNVVVVMMgoY",
"Y YXfmhkkkkkhf5o",
" Y.fHCCCGh<1Gg,@",
" .MHGGGCDSGh5+X@",
"Y,UUUUUUUPP5 7kV",
",CLLLLLLLKs OHF6"
};
