/* XPM */
/*****************************************************************************/
/**       This pixmap is kindly offered by Ion Cionca - 1992 -              **/
/**       Swiss Federal Institute of Technology                             **/
/**       Central Computing Service                                         **/
/*****************************************************************************/
static char * image_name [] = {
/**/
"42 34 8 1",
/**/
" 	s mask	c none",
".	c gray70",
"X	c gray85",
"o	c gray50",
"O	c red",
"+	c darkolivegreen",
"@	c white",
"#	c black",
"       .........................          ",
"      .XXXXXXXXXXXXXXXXXXXXXXXXX.         ",
"     .XXXXXXXXXXXXXXXXXXXXXXXXXXXoo       ",
"     .XX+++++++++++++++++++++XXXXoo       ",
"     .XX++++++++++++++++++++++XXXooo      ",
"     .XX++@@+@++@@@@++@+++++++XXXooo      ",
"     .XX++++++++++++++++++++++XXXoooo     ",
"     .XX++@@@@++@@@+++++++++++XXXoooo     ",
"     .XX++++++++++++++++++++++XXXooooo    ",
"     .XX++@@@@@+@@+@@@@@++++++XXXooooo    ",
"     .XX++++++++++++++++++++++XXXooooo    ",
"     .XX++@@@+@@+@@++@@@++++++XXXooooo    ",
"     .XX++++++++++++++++++++++XXXooooo    ",
"     .XX++@+++++++++++++++++++XXXooooo    ",
"     .XX++++++++++++++++++++++XXXooooo    ",
"     .XX++@@@@+@@@+@++++++++++XXXooooo    ",
"     .XX++++++++++++++++++++++XXXooooo    ",
"     .XX++@+@@@+++++++++++++++XXXooooo    ",
"     .XXX++++++++++++++++++++XXXXoooo     ",
"     .XXXXXXXXXXXXXXXXXXXXXXXXXXXooo      ",
"      .XXXXXXXXXXXXXXXXXXXXXXXXXooo       ",
"         ooooooooooooooooooooooo...oo     ",
"          ........................ooo     ",
"         oooooooooooooooooooooooooooo     ",
"       oXXXXXXXXXXXXXXXXXXXXXXXXXoooo.. ..",
"       oXXXXXXXXXXXXXXXX#######XXoooo  .  ",
"     oooooooooooooooooooooooooXXXooo     .",
"    oXXXXXXXXXXXXXXXXXXXXXXXXooooo      . ",
"   oXXXXXXXXXXXXXXXXXXXXXXXXoo      oooooo",
"   oXX@@@@@@@@@@@@@@@@@XXXXXoo   ooooo...o",
"  oXXXXXXXXXXXXXXXXXXXXXXXXoo   ooXXXoo..o",
" oXX@@@@@@@@@@@@@@@@@@XXXXoo    oXXXXX..o ",
"oXXXXXXXXXXXXXXXXXXXXXXXXoo     o.....oo  ",
"oooooooooooooooooooooooooo      ooooooo   "};
