<?xml version="1.0" encoding="UTF-8" standalone="no"?>
<!-- Created with Inkscape (http://www.inkscape.org/) -->
<svg
   xmlns:dc="http://purl.org/dc/elements/1.1/"
   xmlns:cc="http://web.resource.org/cc/"
   xmlns:rdf="http://www.w3.org/1999/02/22-rdf-syntax-ns#"
   xmlns:svg="http://www.w3.org/2000/svg"
   xmlns="http://www.w3.org/2000/svg"
   xmlns:sodipodi="http://sodipodi.sourceforge.net/DTD/sodipodi-0.dtd"
   xmlns:inkscape="http://www.inkscape.org/namespaces/inkscape"
   id="svg1923"
   sodipodi:version="0.32"
   inkscape:version="0.45"
   width="153"
   height="153"
   version="1.0"
   sodipodi:docname="logo.svg"
   inkscape:export-xdpi="73.868759"
   inkscape:export-ydpi="73.868759"
   inkscape:output_extension="org.inkscape.output.svg.inkscape"
   sodipodi:modified="true">
  <metadata
     id="metadata1928">
    <rdf:RDF>
      <cc:Work
         rdf:about="">
        <dc:format>image/svg+xml</dc:format>
        <dc:type
           rdf:resource="http://purl.org/dc/dcmitype/StillImage" />
      </cc:Work>
    </rdf:RDF>
  </metadata>
  <defs
     id="defs1926" />
  <sodipodi:namedview
     inkscape:window-height="718"
     inkscape:window-width="1024"
     inkscape:pageshadow="2"
     inkscape:pageopacity="0.0"
     guidetolerance="10.0"
     gridtolerance="10.0"
     objecttolerance="10.0"
     borderopacity="1.0"
     bordercolor="#666666"
     pagecolor="#ffffff"
     id="base"
     inkscape:zoom="2.8807788"
     inkscape:cx="84.493927"
     inkscape:cy="67.737297"
     inkscape:window-x="0"
     inkscape:window-y="25"
     inkscape:current-layer="svg1923" />
  <path
     id="path3210"
     style="color:#000000;fill:none;fill-opacity:1;fill-rule:evenodd;stroke:#7a9797;stroke-width:3;stroke-linecap:butt;stroke-linejoin:miter;stroke-miterlimit:4;stroke-dashoffset:0;stroke-opacity:1;marker:none;marker-start:none;marker-mid:none;marker-end:none;visibility:visible;display:inline;overflow:visible;stroke-dasharray:none"
     d="M 100.64414,109.97316 C 100.64414,124.78527 88.622719,136.8067 73.810609,136.8067 C 58.9985,136.8067 46.977078,124.78527 46.977078,109.97316 C 46.977078,95.161056 58.9985,83.139634 73.810609,83.139634 C 88.622719,83.139634 100.64414,95.161056 100.64414,109.97316 z M 79.3125,6.40625 C 68.303969,10.752748 65.905515,22.739014 68.40625,39.09375 C 62.921844,35.137595 58.86139,28.915484 51.125,28.5625 C 59.165963,34.51519 61.779972,51.712972 55.25,56 C 49.664666,55.017394 48.335513,48.035121 44.34375,48.875 C 49.043111,56.817567 47.915681,61.67907 45.71875,67.34375 C 44.510543,70.45905 45.736029,76.327721 41.71875,77.0625 C 38.085318,73.172278 34.548458,68.066159 30.4375,69.90625 C 42.662787,76.943413 32.469618,102.46241 36.9375,106.375 C 36.942025,106.38441 36.962488,106.39672 36.96875,106.40625 C 36.855205,107.58197 36.78125,108.76355 36.78125,109.96875 C 36.781251,130.27993 53.282574,146.75 73.59375,146.75 C 93.904923,146.75 110.375,130.27993 110.375,109.96875 C 110.375,106.88464 109.99652,103.89525 109.28125,101.03125 C 108.72056,91.342064 110.92214,91.013655 109.125,87.21875 C 112.76418,85.63065 115.34606,73.905814 123.6875,72.9375 C 120.23448,68.784755 113.91588,75.277453 107.875,74.4375 C 112.22786,46.394324 103.21612,51.529756 103.75,42.46875 C 99.311917,48.435111 105.22527,56.371091 99.625,60.90625 C 99.66542,34.022819 91.429387,39.406641 90.96875,28.5625 C 89.440411,30.914159 89.849313,37.516991 86.09375,34.96875 C 78.599386,22.825991 77.83925,14.065203 79.3125,6.40625 z M 74,53.1875 C 79.1793,55.336664 79.320053,64.532885 83.40625,74.5 C 80.375343,73.660643 77.197037,73.183613 73.90625,73.15625 C 71.713333,65.326126 75.784779,59.881445 74,53.1875 z M 90.59375,65.1875 C 91.851317,70.090494 95.562122,66.896529 95.71875,80.5625 C 93.406374,78.815584 90.878973,77.354898 88.1875,76.1875 C 88.715153,72.617914 87.879604,68.604545 90.59375,65.1875 z M 61.75,66.34375 C 65.980004,67.10742 65.358187,70.39088 67.3125,73.71875 C 64.778823,74.156306 62.328913,74.853046 60,75.78125 C 60.209107,71.685728 62.144639,69.96352 61.75,66.34375 z M 52.15625,72.5 C 53.657817,74.63684 52.746958,77.193033 53.71875,79 C 51.652023,80.33031 49.724998,81.857781 47.96875,83.5625 C 46.942655,75.872893 51.401934,76.422586 52.15625,72.5 z " />
</svg>
