<?xml version="1.0" encoding="UTF-8" standalone="no"?>
<!-- Created with Inkscape (http://www.inkscape.org/) -->
<svg
   xmlns:dc="http://purl.org/dc/elements/1.1/"
   xmlns:cc="http://web.resource.org/cc/"
   xmlns:rdf="http://www.w3.org/1999/02/22-rdf-syntax-ns#"
   xmlns:svg="http://www.w3.org/2000/svg"
   xmlns="http://www.w3.org/2000/svg"
   xmlns:xlink="http://www.w3.org/1999/xlink"
   xmlns:sodipodi="http://sodipodi.sourceforge.net/DTD/sodipodi-0.dtd"
   xmlns:inkscape="http://www.inkscape.org/namespaces/inkscape"
   id="svg1923"
   sodipodi:version="0.32"
   inkscape:version="0.45.1"
   width="153"
   height="153"
   version="1.0"
   sodipodi:docname="logo.svg"
   inkscape:output_extension="org.inkscape.output.svg.inkscape"
   sodipodi:modified="true">
  <metadata
     id="metadata1928">
    <rdf:RDF>
      <cc:Work
         rdf:about="">
        <dc:format>image/svg+xml</dc:format>
        <dc:type
           rdf:resource="http://purl.org/dc/dcmitype/StillImage" />
      </cc:Work>
    </rdf:RDF>
  </metadata>
  <defs
     id="defs1926">
    <linearGradient
       id="linearGradient4222">
      <stop
         style="stop-color:#000000;stop-opacity:0.46464646;"
         offset="0"
         id="stop4224" />
      <stop
         style="stop-color:#000000;stop-opacity:0;"
         offset="1"
         id="stop4226" />
    </linearGradient>
    <linearGradient
       id="linearGradient3375">
      <stop
         id="stop3377"
         offset="0"
         style="stop-color:#ffffff;stop-opacity:0;" />
      <stop
         style="stop-color:#ffffff;stop-opacity:0.58585858;"
         offset="0.5"
         id="stop3161" />
      <stop
         id="stop3379"
         offset="1"
         style="stop-color:#ffffff;stop-opacity:0;" />
    </linearGradient>
    <linearGradient
       id="linearGradient3195">
      <stop
         id="stop3197"
         offset="0"
         style="stop-color:#432000;stop-opacity:0.70707071;" />
      <stop
         id="stop3199"
         offset="1"
         style="stop-color:#512900;stop-opacity:0.19215687;" />
    </linearGradient>
    <linearGradient
       inkscape:collect="always"
       xlink:href="#linearGradient3195"
       id="linearGradient4208"
       x1="90.490707"
       y1="130.73015"
       x2="48.013512"
       y2="51.584888"
       gradientUnits="userSpaceOnUse"
       gradientTransform="translate(-4.7268496,-3.4117259)" />
    <radialGradient
       inkscape:collect="always"
       xlink:href="#linearGradient4222"
       id="radialGradient4228"
       cx="129.11029"
       cy="148.09087"
       fx="129.11029"
       fy="148.09087"
       r="56.47324"
       gradientTransform="matrix(1,0,0,0.226336,0,114.57257)"
       gradientUnits="userSpaceOnUse" />
    <linearGradient
       inkscape:collect="always"
       xlink:href="#linearGradient3375"
       id="linearGradient3192"
       gradientUnits="userSpaceOnUse"
       gradientTransform="translate(-4.758125,-3.5729553)"
       x1="59.186226"
       y1="54.061455"
       x2="85.291908"
       y2="133.31537" />
  </defs>
  <sodipodi:namedview
     inkscape:window-height="715"
     inkscape:window-width="1016"
     inkscape:pageshadow="2"
     inkscape:pageopacity="0.0"
     guidetolerance="10.0"
     gridtolerance="10.0"
     objecttolerance="10.0"
     borderopacity="1.0"
     bordercolor="#666666"
     pagecolor="#ffffff"
     id="base"
     inkscape:zoom="2.8807788"
     inkscape:cx="96.900588"
     inkscape:cy="74.657665"
     inkscape:window-x="0"
     inkscape:window-y="25"
     inkscape:current-layer="svg1923" />
  <path
     sodipodi:type="arc"
     style="fill:url(#radialGradient4228);fill-opacity:1;stroke:none;stroke-width:2;stroke-linecap:butt;stroke-miterlimit:4;stroke-dasharray:none;stroke-dashoffset:0;stroke-opacity:1;fill-rule:nonzero"
     id="path3220"
     sodipodi:cx="129.11029"
     sodipodi:cy="148.09087"
     sodipodi:rx="55.47324"
     sodipodi:ry="11.781927"
     d="M 184.58353 148.09087 A 55.47324 11.781927 0 1 1  73.637051,148.09087 A 55.47324 11.781927 0 1 1  184.58353 148.09087 z"
     transform="translate(-55.220558,-11.553914)"
     inkscape:export-xdpi="88.239998"
     inkscape:export-ydpi="88.239998" />
  <path
     id="path3210"
     style="color:#000000;fill:#ff8a2d;fill-opacity:1;fill-rule:evenodd;stroke:url(#linearGradient4208);stroke-width:3;stroke-linecap:butt;stroke-linejoin:miter;marker:none;marker-start:none;marker-mid:none;marker-end:none;stroke-miterlimit:4;stroke-dasharray:none;stroke-dashoffset:0;stroke-opacity:1;visibility:visible;display:inline;overflow:visible"
     d="M 95.570171,105.17292 C 95.570171,119.98503 83.548739,132.00646 68.736629,132.00646 C 53.924519,132.00646 41.903099,119.98503 41.903099,105.17292 C 41.903099,90.360812 53.924519,78.339394 68.736629,78.339394 C 83.548739,78.339394 95.570171,90.360812 95.570171,105.17292 z M 74.238519,1.6060111 C 63.229989,5.9525101 60.831539,17.938774 63.332269,34.29351 C 57.847869,30.337355 53.787409,24.115244 46.051019,23.76226 C 54.091989,29.71495 56.705999,46.912732 50.176019,51.19976 C 44.590689,50.217154 43.261539,43.234881 39.269769,44.07476 C 43.969129,52.017327 42.841699,56.87883 40.644769,62.54351 C 39.436569,65.65881 40.662049,71.527481 36.644769,72.26226 C 33.011339,68.372038 29.474479,63.265919 25.363519,65.10601 C 37.588809,72.143173 27.395639,97.662175 31.863519,101.57476 C 31.868049,101.58417 31.888509,101.59648 31.894769,101.60601 C 31.781229,102.78173 31.707269,103.96331 31.707269,105.16851 C 31.707269,125.47969 48.208599,141.94976 68.519769,141.94976 C 88.830949,141.94976 105.30103,125.47969 105.30103,105.16851 C 105.30103,102.0844 104.92255,99.095015 104.20728,96.231008 C 103.64659,86.541822 105.84817,86.213415 104.05103,82.41851 C 107.69021,80.83041 110.27209,69.105574 118.61353,68.13726 C 115.16051,63.984515 108.84191,70.477213 102.80103,69.63726 C 107.15389,41.594084 98.142146,46.729516 98.676026,37.66851 C 94.237938,43.634871 100.1513,51.570851 94.551018,56.10601 C 94.591438,29.222579 86.355409,34.606401 85.894769,23.76226 C 84.366429,26.113919 84.775339,32.716751 81.019769,30.16851 C 73.525409,18.025751 72.765269,9.2649628 74.238519,1.6060111 z M 68.926019,48.38726 C 74.105319,50.536424 74.246079,59.732645 78.332269,69.69976 C 75.301369,68.860403 72.123059,68.383373 68.832269,68.35601 C 66.639359,60.525886 70.710799,55.081205 68.926019,48.38726 z M 85.519769,60.38726 C 86.777339,65.290254 90.488149,62.096289 90.644769,75.76226 C 88.332399,74.015344 85.804999,72.554658 83.113519,71.38726 C 83.641179,67.817674 82.805629,63.804305 85.519769,60.38726 z M 56.676019,61.54351 C 60.906029,62.30718 60.284209,65.59064 62.238519,68.91851 C 59.704849,69.356066 57.254939,70.052806 54.926019,70.98101 C 55.135129,66.885488 57.070659,65.16328 56.676019,61.54351 z M 47.082269,67.69976 C 48.583839,69.8366 47.672979,72.392793 48.644769,74.19976 C 46.578049,75.53007 44.651019,77.057541 42.894769,78.76226 C 41.868679,71.072653 46.327959,71.622346 47.082269,67.69976 z " />
  <path
     style="color:#000000;fill:url(#linearGradient3192);fill-opacity:1.0;fill-rule:evenodd;stroke:none;stroke-width:2;stroke-linecap:butt;stroke-linejoin:miter;marker:none;marker-start:none;marker-mid:none;marker-end:none;stroke-miterlimit:4;stroke-dasharray:none;stroke-dashoffset:0;stroke-opacity:1;visibility:visible;display:inline;overflow:visible"
     d="M 69.46875,10.28125 C 63.664104,20.101427 67.516587,32.181795 68.5625,42.8125 C 64.383903,40.34693 60.018803,36.809401 56.78125,33.9375 C 59.019478,41.05684 58.426731,51.86881 50.59375,55.0625 C 48.561405,55.737799 45.657164,52.371005 46.34375,56.21875 C 46.460838,58.589334 43.753534,61.977302 47.40625,61.25 C 49.474432,62.659576 50.41313,65.273985 51.46875,67.4375 C 52.590407,63.922468 53.289017,60.195222 52,56.59375 C 56.739321,56.851746 62.512215,57.923097 64.1875,63.125 C 64.937858,55.583301 66.653425,47.617551 62.1875,40.71875 C 68.941607,43.104381 76.214275,46.906693 77.875,54.46875 C 78.852493,56.2166 79.322168,62.787512 80.25,61.5625 C 81.845029,57.38098 85.239179,54.394756 88.03125,50.96875 C 88.152009,54.50339 88.038742,58.37034 90.59375,61.0625 C 90.390078,51.908112 91.282207,40.947645 85.40625,33.71875 C 80.260163,36.683766 75.514876,30.874801 74.334036,26.324323 C 71.711518,21.49561 70.21988,14.795877 69.46875,10.28125 z M 99.78125,55.5 C 98.541529,59.183822 94.147064,61.374968 92.28125,63.4375 C 96.124945,69.478243 93.847424,77.416167 94.96875,84.25 C 84.920435,73.704878 68.623828,68.521707 54.90625,75.09375 C 49.080067,77.674614 44.523853,82.281419 40.34375,86.96875 C 39.333562,83.360511 38.408444,79.29954 38.6875,75.6875 C 36.791765,76.441725 34.303505,75.155376 35.65625,78.375 C 35.731521,86.940991 33.638175,95.47278 35.6875,103.875 C 34.565144,120.64265 48.29668,136.00537 64.9375,137.5625 C 83.720029,140.53968 101.72183,123.65439 101.3125,104.96875 C 101.15827,98.63036 98.753337,92.547833 100.6875,86.15625 C 101.37817,83.139112 96.454535,80.159092 101.25,79.21875 C 103.30527,78.12602 105.28942,74.772952 105.3125,73.46875 C 102.11561,73.606062 96.413727,74.292068 98.6875,69.46875 C 99.324679,64.64974 100.20584,59.914746 100,55.03125 L 99.78125,55.5 z M 69.625,74.125 C 89.031354,74.107293 104.57014,95.352569 98.3125,113.8125 C 93.515562,131.78057 70.605163,141.68898 54.28125,132.34375 C 37.537153,124.04819 32.224028,99.346955 45.03125,85.25 C 50.974994,78.079696 60.275787,73.896276 69.625,74.125 z "
     id="path3211" />
</svg>
